<?xml version="1.0" encoding="utf-8"?>
<!-- Generator: Adobe Illustrator 22.1.0, SVG Export Plug-In . SVG Version: 6.00 Build 0)  -->
<svg version="1.1" id="OBJECTS" xmlns="http://www.w3.org/2000/svg" xmlns:xlink="http://www.w3.org/1999/xlink" x="0px" y="0px"
	 viewBox="0 0 141 106" style="enable-background:new 0 0 141 106;" xml:space="preserve">
<style type="text/css">
	.st0{fill:#FFFFFF;}
</style>
<path class="st0" d="M87.4,21.5c-1.4,0.2-1.8,2-0.3,2.5c7.5,2.4,3,11.6,3.7,16.9c0.1,0.8,0.9,1.2,1.6,0.6
	C96.8,37.3,96.1,20.4,87.4,21.5z"/>
<path class="st0" d="M61.5,29.9c-1.5-2.7-4.1-4.4-7-5.1c-1.2-0.3-1.7,1.5-0.5,1.9c2.3,0.8,4.1,2.7,5.1,4.9c0.9,1.8,0.5,4.1,1.6,5.8
	c0.2,0.4,0.7,0.4,1,0.1C63.9,35.9,62.6,31.9,61.5,29.9z"/>
<path class="st0" d="M34.1,47.4c-1.3-2.5-3.6-4.9-6.6-4.1c-1.4,0.3-1.1,2.4,0.3,2.5c5.1,0,4.6,9.1,7.2,12c0.2,0.2,0.8,0.2,0.9-0.1
	C37.2,54.6,35.4,50.1,34.1,47.4z"/>
<g>
	<path class="st0" d="M44.8,98.2c-3.9,1.7-11.3,4.5-15.1,1.2c-2.6-2.3-2.5-8.1-2.3-11.2c0.6-10,6.3-19.8,12.3-27.6
		c7.2-9.3,17.9-16.3,29.6-16.7c8.9-0.3,17.6,3.3,24.6,8.8c6.9,5.6,12.2,13,16.2,20.9c2,3.9,3.7,8,3.8,12.3c0.1,4.3-1.9,8.9-5.7,11
		c-3.1,1.7-6.8,1.5-10.1,0.4c-3.3-1.1-6.3-2.9-9.4-4.6c-5.6-3-11.9-5.4-18.3-5C61.1,88.3,53.3,94.4,44.8,98.2z"/>
	<path class="st0" d="M36.1,49.4c1.1,9.4-6,14.5-13.3,7.4c-4.5-4.3-7.9-12-8.6-18.2c-0.3-3.1,0.1-6.6,2.4-8.7c2.2-2,5.8-2,8.5-0.7
		c2.7,1.3,4.7,3.8,6.2,6.4C33.8,39.8,35.5,44.5,36.1,49.4z"/>
	<path class="st0" d="M62.9,24.2c1.5,6.3-0.3,16-8.8,15.3C43.9,38.6,42.7,21,43.8,13.8c0.4-2.7,1.5-5.8,4-6.8
		c1.8-0.7,3.8-0.2,5.4,0.9C54.8,9,56,10.6,57,12.1C59.6,15.8,61.9,19.8,62.9,24.2z"/>
	<path class="st0" d="M98.4,20c0.1-4.2-0.8-8.6-3.6-11.7c-2.7-3.2-7.6-4.7-11.3-2.7c-3.8,2-5.3,6.8-5.9,11c-0.9,5.8-2.3,16.5,2,21.4
		c2.7,3.1,6.7,1.5,9.7-0.3C95.3,34.3,98.3,26.7,98.4,20z"/>
	<path class="st0" d="M123.5,58.3c-6,5.7-18.3,3.9-17.2-5.9c0.7-6.6,5.2-13.4,9.3-18.5c2.5-3.1,6.1-6.1,10-5.2
		c3.1,0.7,5.2,3.7,5.7,6.8c0.5,3.1-0.2,6.3-1,9.3C128.9,49.7,127.2,54.8,123.5,58.3z"/>
</g>
<path class="st0" d="M79.5,50.4c0-0.2-0.1-0.3-0.1-0.5c-0.2-1-1.2-1.7-2.1-1.8c-1.1-0.2-2.2,0.5-2.6,1.5c-0.4,0.9-0.2,2,0.5,2.8
	c0.8,0.8,2,0.9,3.1,0.4c-0.7,0.3,0.2-0.1,0.4-0.1C79.4,52.3,79.7,51.3,79.5,50.4z"/>
<path class="st0" d="M86,53.1c-1.4-0.7-3,1.1-1.7,2.2c4.7,4.4,9.7,7.8,13.5,13.2c4.5,6.5,6.2,14.5,4.5,22.2
	c-0.7,3.1,4.2,4.3,4.7,1.3C109.4,75.8,101.2,60.3,86,53.1z"/>
<path class="st0" d="M124.7,33.5c-1.3-0.7-2.7,1-1.6,2.1c2.5,2.4,1.1,7.9,0.3,10.6c-0.7,2.5-2.1,4.6-2.2,7.2c0,0.8,0.9,1.4,1.6,0.9
	c3.1-2.2,4.1-7.3,4.6-10.9C127.8,40,128.3,35.4,124.7,33.5z"/>
</svg>
