<?xml version="1.0" encoding="utf-8"?>
<!-- Generator: Adobe Illustrator 22.1.0, SVG Export Plug-In . SVG Version: 6.00 Build 0)  -->
<svg version="1.1" id="artwork" xmlns="http://www.w3.org/2000/svg" xmlns:xlink="http://www.w3.org/1999/xlink" x="0px" y="0px"
	 viewBox="0 0 439 389" style="enable-background:new 0 0 439 389;" xml:space="preserve">
<style type="text/css">
	.st0{fill:#FBFBFB;}
	.st1{clip-path:url(#SVGID_2_);}
	.st2{fill:#BE4341;}
	.st3{fill:#FFE02B;}
	.st4{fill:#FFFFFF;}
</style>
<g>
	<path class="st0" d="M190,5C85.1,5,0,69.9,0,150c0,48.5,31.2,91.4,79.1,117.7L45,325l109.7-32.5c11.4,1.6,23.2,2.5,35.3,2.5
		c104.9,0,190-64.9,190-145S294.9,5,190,5z"/>
	<path class="st0" d="M190,7C85.1,7,0,71.9,0,152c0,48.5,31.2,91.4,79.1,117.7L45,325l109.7-30.5c11.4,1.6,23.2,2.5,35.3,2.5
		c104.9,0,190-64.9,190-145S294.9,7,190,7z"/>
</g>
<g>
	<defs>
		<path id="SVGID_1_" d="M101.5,263.8l-14.7-8.1C42.5,231.3,16,192.6,16,152C16,80.9,94.1,23,190,23s174,57.9,174,129
			s-78.1,129-174,129c-11,0-22.1-0.8-33-2.3l-3.3-0.5L80,298.7L101.5,263.8z"/>
	</defs>
	<use xlink:href="#SVGID_1_"  style="overflow:visible;fill:#EC5552;"/>
	<clipPath id="SVGID_2_">
		<use xlink:href="#SVGID_1_"  style="overflow:visible;"/>
	</clipPath>
	<g class="st1">
		<polygon class="st2" points="247,69.8 200.1,156.6 348.5,305.1 415,237.8 		"/>
		<polygon class="st2" points="311.1,84.8 258.8,97.6 287.7,126.6 264.4,156 372.3,263.9 430.6,204.4 		"/>
		<polygon class="st2" points="184,84.9 168,89.5 132.8,142.5 337.2,346.8 388.9,289.8 		"/>
		<path class="st2" d="M115.7,91.8c0,0-18.4-7.5-34.7-1.3c-11,4.4-16.5,15-16.5,15l19.9,19.9c-7.4,1.2-13,3.7-14.3,7.3
			c-2.7,7.7-5.9,23.3-5.9,23.3l220,220l59.4-56.2L115.7,91.8z"/>
	</g>
	<g class="st1">
		<path class="st2" d="M92.7,178.9c0,0-17.8-8.9-23.9,4.9c-0.7,2.9-0.1,8.6-0.1,8.6l18.1,18.1c-1.8,0.9-7.6,0.2-9.3-1.5l-7.1-7.1
			l-2.2,8.3L218,359.9l30.4-25.2L92.7,178.9z"/>
		<polygon class="st2" points="280.1,179.5 255.1,177.1 253,213 300.8,260.8 332.1,231.6 		"/>
		<polygon class="st2" points="167.1,179.4 142.2,177.1 140.2,213 256.6,329.4 287.7,300.1 		"/>
		<polygon class="st2" points="315.3,176 284.8,182.4 299.2,196.7 296.6,213 342.1,258.5 368.1,228.9 		"/>
		<polygon class="st2" points="204.1,179.4 179.2,177.1 177.2,213 287.8,323.6 318.9,294.3 		"/>
		<path class="st2" d="M244.6,181c0,0-17.8-11.3-28.2,4c-6.8,12.6,0.8,23.6,0.8,23.6l102.3,102.3l26.6-28.3L244.6,181z"/>
		<polygon class="st2" points="251.3,295.6 131.7,176 127.5,197.3 106.2,176 101.7,184.1 104,209.5 222.2,327.6 		"/>
	</g>
</g>
<g>
	<path class="st3" d="M281.2,180.5l35.5-71.2h-42.3V93.7h63.8l0.9,8.7l-38.9,78.1H281.2z"/>
	<path class="st4" d="M260,75.3l-41.4,105.2h-15.8l41.3-105.2H260z"/>
	<g>
		<path class="st3" d="M37.3,118.8c0.1-18.4,17.5-26.3,33.5-26.3c17.4,0,36.2,7.1,36.2,27.7c0,22.1-16.6,26.3-34.8,26.3
			c-7.2,0-18.9,1.9-18.9,11.3v7.4h53.9v15.3H36.9c0-7.6,0-15.1,0-22.8c0-20,18.1-25.9,35.2-25.9c6.6,0,18.6-1.1,18.6-11.2
			c0-9.4-8.6-13.9-19.7-13.9c-8.6,0-17.4,4.3-17.5,12.2H37.3z"/>
		<path class="st3" d="M183.2,93.8v54.3h10.2V164h-10.2v16.5h-16.1V164h-46.4l-1.5-16.6l39.1-53.6H183.2z M167.1,148.1v-40.2
			l-29.4,40.2H167.1z"/>
	</g>
</g>
</svg>
